<svg width="352" height="142" viewBox="0 0 352 142" fill="none" xmlns="http://www.w3.org/2000/svg">
<path d="M124.8 30.8701V58.5701H93.4502V30.8701" stroke="black" stroke-width="4.32" stroke-linecap="round" stroke-linejoin="round"/>
<path d="M92.8003 40.9101H81.5103V31.2401C81.5103 23.2701 87.1903 16.8101 94.1903 16.8101H98.4703C100.45 21.8201 104.47 25.2601 109.12 25.2601C113.77 25.2601 117.79 21.8301 119.77 16.8101H124.05C131.05 16.8101 136.73 23.2701 136.73 31.2401V40.9101H125.44" stroke="black" stroke-width="4.32" stroke-linecap="round" stroke-linejoin="round"/>
<path d="M109.76 47.9501C113.51 47.9501 116.55 44.7982 116.55 40.9101C116.55 37.022 113.51 33.8701 109.76 33.8701C106.01 33.8701 102.97 37.022 102.97 40.9101C102.97 44.7982 106.01 47.9501 109.76 47.9501Z" fill="#FFD200"/>
<path d="M325.1 26.5701C310.43 26.5701 298.53 38.4701 298.53 53.1401C298.53 67.8101 310.43 79.7101 325.1 79.7101C339.77 79.7101 351.67 67.8101 351.67 53.1401C351.67 38.4701 339.77 26.5701 325.1 26.5701ZM335.89 44.9801C335.42 43.7701 334.47 42.8201 333.26 42.3501C332.44 42.0501 331.57 41.8801 330.69 41.8701C329.23 41.8001 328.79 41.7901 325.1 41.7901C321.41 41.7901 320.97 41.8101 319.51 41.8701C318.63 41.8801 317.76 42.0401 316.94 42.3501C315.73 42.8201 314.78 43.7701 314.31 44.9801C314.01 45.8001 313.84 46.6701 313.83 47.5501C313.76 49.0101 313.75 49.4501 313.75 53.1401C313.75 56.8301 313.77 57.2701 313.83 58.7301C313.84 59.6101 314 60.4801 314.31 61.3001C314.78 62.5101 315.73 63.4601 316.94 63.9301C317.76 64.2301 318.63 64.4001 319.51 64.4101C320.97 64.4801 321.41 64.4901 325.1 64.4901C328.79 64.4901 329.23 64.4801 330.69 64.4101C331.57 64.4101 332.44 64.2401 333.26 63.9401C334.47 63.4701 335.42 62.5201 335.89 61.3101C336.19 60.4901 336.36 59.6201 336.37 58.7401C336.44 57.2801 336.45 56.8401 336.45 53.1501C336.45 49.4601 336.44 49.0201 336.37 47.5601C336.37 46.6801 336.2 45.8101 335.9 44.9901L335.89 44.9801ZM325.1 60.2501C321.17 60.2501 317.99 57.0701 317.99 53.1401C317.99 49.2101 321.17 46.0301 325.1 46.0301C329.03 46.0301 332.21 49.2101 332.21 53.1401C332.21 57.0701 329.03 60.2501 325.1 60.2501ZM332.49 47.6101C331.47 47.6101 330.64 46.7801 330.64 45.7601C330.64 44.7401 331.47 43.9101 332.49 43.9101C333.51 43.9101 334.34 44.7401 334.34 45.7601C334.34 46.7801 333.51 47.6101 332.49 47.6101ZM329.13 53.1501C329.13 55.3801 327.33 57.1801 325.1 57.1801C322.87 57.1801 321.07 55.3801 321.07 53.1501C321.07 50.9201 322.87 49.1201 325.1 49.1201C327.33 49.1201 329.13 50.9201 329.13 53.1501ZM340.08 59.3601C340.05 60.6101 339.82 61.8501 339.38 63.0201C338.6 65.0401 337 66.6401 334.97 67.4301C333.8 67.8701 332.56 68.1101 331.31 68.1301C329.7 68.2001 329.19 68.2201 325.09 68.2201C320.99 68.2201 320.48 68.2001 318.87 68.1301C317.62 68.1001 316.38 67.8701 315.21 67.4301C313.19 66.6501 311.59 65.0501 310.8 63.0201C310.36 61.8501 310.12 60.6101 310.1 59.3601C310.03 57.7501 310.01 57.2401 310.01 53.1401C310.01 49.0401 310.03 48.5301 310.1 46.9201C310.12 45.6701 310.36 44.4301 310.8 43.2601C311.58 41.2301 313.18 39.6301 315.21 38.8501C316.38 38.4101 317.62 38.1801 318.87 38.1501C320.48 38.0801 320.99 38.0601 325.09 38.0601C329.19 38.0601 329.7 38.0801 331.31 38.1501C332.56 38.1701 333.8 38.4101 334.97 38.8501C336.99 39.6301 338.6 41.2301 339.38 43.2601C339.82 44.4301 340.06 45.6701 340.08 46.9201C340.15 48.5301 340.17 49.0401 340.17 53.1401C340.17 57.2401 340.15 57.7501 340.08 59.3601Z" fill="black"/>
<path d="M238.58 0C223.9 0 212.01 11.89 212.01 26.57C212.01 41.25 223.9 53.14 238.58 53.14C253.26 53.14 265.15 41.25 265.15 26.57C265.15 11.89 253.26 0 238.58 0ZM231.15 37.69H225.97V21.11H231.15V37.69ZM228.42 19.04H228.38C226.5 19.04 225.29 17.77 225.29 16.16C225.29 14.55 226.55 13.28 228.46 13.28C230.37 13.28 231.54 14.52 231.58 16.16C231.59 17.76 230.38 19.04 228.42 19.04ZM251.87 37.69H246V29.12C246 26.88 245.09 25.34 243.06 25.34C241.51 25.34 240.65 26.38 240.26 27.37C240.11 27.72 240.14 28.22 240.14 28.73V37.69H234.32C234.32 37.69 234.39 22.49 234.32 21.11H240.14V23.72C240.48 22.58 242.34 20.96 245.31 20.96C248.99 20.96 251.88 23.35 251.88 28.47V37.69H251.87Z" fill="black"/>
<path d="M100.07 88.26C85.39 88.26 73.5 100.21 73.5 114.95C73.5 129.69 85.39 141.64 100.07 141.64C114.75 141.64 126.64 129.69 126.64 114.95C126.64 100.21 114.75 88.26 100.07 88.26ZM107.32 104.29H104.93C102.58 104.29 101.85 105.75 101.85 107.25V110.8H107.09L106.25 116.27H101.85V129.49H95.94V116.28H91.14V110.81H95.94V106.64C95.94 101.9 98.76 99.28 103.08 99.28C105.15 99.28 107.32 99.65 107.32 99.65V104.3V104.29Z" fill="black"/>
<path d="M24.6602 118H17.2302C8.91016 118 2.16016 111.25 2.16016 102.93C2.16016 94.6101 8.91016 87.8601 17.2302 87.8601H39.1102C47.4302 87.8601 54.1802 94.6101 54.1802 102.93C54.1802 106.9 52.6402 110.52 50.1302 113.21L35.2102 127.15V118H24.6502H24.6602Z" stroke="black" stroke-width="4.32" stroke-linecap="round" stroke-linejoin="round"/>
<path d="M18.04 99.05H37.06" stroke="#FFD200" stroke-width="2.88" stroke-linecap="round" stroke-linejoin="round"/>
<path d="M19.9102 107.5H35.1802" stroke="#FFD200" stroke-width="2.88" stroke-linecap="round" stroke-linejoin="round"/>
<path d="M286.81 106.21V133.9H255.47V106.21" stroke="black" stroke-width="4.32" stroke-linecap="round" stroke-linejoin="round"/>
<path d="M254.82 116.24H243.53V106.57C243.53 98.5999 249.21 92.1399 256.21 92.1399H260.49C262.47 97.1499 266.49 100.59 271.14 100.59C275.79 100.59 279.81 97.1599 281.79 92.1399H286.07C293.07 92.1399 298.75 98.5999 298.75 106.57V116.24H287.46" stroke="black" stroke-width="4.32" stroke-linecap="round" stroke-linejoin="round"/>
<path d="M271.14 105.57L274.27 111.9L281.26 112.91L276.2 117.84L277.39 124.8L271.14 121.52L264.89 124.8L266.08 117.84L261.03 112.91L268.02 111.9L271.14 105.57Z" fill="#FFD200"/>
<path d="M182.98 128.4C202.498 128.4 218.32 112.578 218.32 93.06C218.32 73.5422 202.498 57.72 182.98 57.72C163.462 57.72 147.64 73.5422 147.64 93.06C147.64 112.578 163.462 128.4 182.98 128.4Z" stroke="#FFD200" stroke-width="5.76" stroke-linecap="round" stroke-linejoin="round"/>
<path d="M173.35 111.06V105.81C181.68 93.64 186.22 86.93 186.22 81.2C186.22 78.12 185.03 76.76 183.19 76.76C181.03 76.76 179.94 78.44 179.94 80.82V83.47H173.56V81.63C173.56 75.9 177.24 71.46 183.51 71.46C189.03 71.46 192.6 75.57 192.6 80.12C192.6 86.29 190.65 90.83 180.16 105.54H192.01V111.06H173.35Z" fill="#FFD200"/>
</svg>
